<svg width="166" height="33" viewBox="0 0 166 33" fill="none" xmlns="http://www.w3.org/2000/svg">
<g clip-path="url(#clip0_1114_472)">
<path d="M91.3393 32.064C92.0881 32.0667 92.8297 31.9176 93.52 31.6256V32.4011C92.796 32.684 92.026 32.8291 91.2494 32.829C88.9553 32.829 87.7931 31.5349 87.7931 28.9805C87.7931 26.426 88.9556 25.1319 91.2494 25.1319C92.0274 25.1282 92.7986 25.2771 93.52 25.5703V26.346C92.8305 26.0499 92.0889 25.8966 91.3393 25.8949C89.4499 25.8949 88.5996 26.8518 88.5996 28.9785C88.5995 31.1176 89.4499 32.064 91.3393 32.064Z" fill="#FAFBFB"/>
<path d="M103.996 29.7577L102.686 26.3245L101.377 29.7577H103.996ZM106.053 32.8769H105.192L104.297 30.5355H101.076L100.181 32.8769H99.3076L102.283 25.3701H103.087L106.053 32.8769Z" fill="#FAFBFB"/>
<path d="M117.686 27.688C117.686 26.9673 117.475 26.1453 115.808 26.1453H114.063V29.2286H115.808C117.473 29.2308 117.686 28.4088 117.686 27.688ZM118.491 27.688C118.491 29.1845 117.573 30.0065 115.908 30.0065H114.063V32.8769H113.258V25.3696H115.91C117.573 25.3696 118.491 26.1916 118.491 27.688Z" fill="#FAFBFB"/>
<path d="M126.738 25.3696H125.933V32.8769H126.738V25.3696Z" fill="#FAFBFB"/>
<path d="M141.394 25.3696V26.1579H138.766V32.8769H137.961V26.1579H135.322V25.3696H141.394Z" fill="#FAFBFB"/>
<path d="M152.084 29.7577L150.774 26.3245L149.465 29.7577H152.084ZM154.143 32.8769H153.282L152.387 30.5355H149.166L148.271 32.8769H147.398L150.372 25.3696H151.177L154.143 32.8769Z" fill="#FAFBFB"/>
<path d="M165.102 32.0891V32.8774H160.484V25.3701H161.288V32.0891H165.102Z" fill="#FAFBFB"/>
<path d="M11.9334 7.99699C11.9334 5.91048 11.2023 4.53004 7.75442 4.53004H4.09498V11.5274H7.75442C11.2023 11.5246 11.9334 10.1152 11.9334 7.99699ZM15.5643 7.99699C15.5643 12.3535 12.8203 14.87 8.03185 14.87H4.09498V21.5912H0.435547V1.12402H8.02822C12.8174 1.12402 15.5635 3.63847 15.5635 7.99699H15.5643Z" fill="#FAFBFB"/>
<path d="M33.5612 18.0925V21.5912H20.1105V1.12402H23.7699V18.0951H33.5606L33.5612 18.0925Z" fill="#FAFBFB"/>
<path d="M79.7014 1.12402V4.80602H73.1742V21.5912H69.5148V4.80602H63.0197V1.12402H79.7014Z" fill="#FAFBFB"/>
<path opacity="0.16" d="M63.0196 9.74194V9.62387H55.897V1.0332H42.9578V9.62387H35.836V9.74194H35.8339V21.591H39.4954V13.3059H46.6174V4.71603H52.2375V13.3067H59.3595V21.5918H63.0196V9.74194Z" fill="#FAFBFB"/>
<path d="M97.3952 1.12402V4.43937H87.9103V9.62419H96.1153V13.0911H87.9103V21.5912H84.2509V1.12402H97.3952Z" fill="#FAFBFB"/>
<path d="M116.057 11.3417C116.057 4.98936 113.252 4.13167 110.202 4.13167C107.184 4.13167 104.376 4.99152 104.376 11.3417C104.376 17.7237 107.181 18.6151 110.202 18.6151C113.252 18.6151 116.057 17.7235 116.057 11.3417ZM119.716 11.3713C119.716 20.0252 114.532 21.8356 110.2 21.8356C105.868 21.8356 100.715 20.0256 100.715 11.3713C100.717 2.68797 105.87 0.877441 110.202 0.877441C114.534 0.877441 119.716 2.6878 119.716 11.3711V11.3713Z" fill="#FAFBFB"/>
<path d="M131.981 11.0046C134.086 11.0046 135.946 10.5136 135.946 7.78211C135.946 5.02107 134.086 4.55959 131.981 4.55959H127.926V11.0046H131.981ZM140.49 21.5912H136.068L131.219 14.3808H127.923V21.5908H124.264V1.12402H132.07C136.767 1.12402 139.603 3.42559 139.603 7.69145C139.603 11.5885 137.133 13.1547 135.15 13.7677L140.49 21.5912Z" fill="#FAFBFB"/>
<path d="M165.102 1.12402V21.5912H161.443V6.46328L155.162 15.5149L148.877 6.46278V21.5906H145.218V1.12402H149.273L155.16 9.68513L161.046 1.12402H165.102Z" fill="#FAFBFB"/>
</g>
<defs>
<clipPath id="clip0_1114_472">
<rect width="164.667" height="32" fill="white" transform="translate(0.435547 0.877441)"/>
</clipPath>
</defs>
</svg>
